{
	"asset":{
		"generator":"Khronos glTF Blender I/O v4.0.44",
		"version":"2.0"
	},
	"extensionsUsed":[
		"KHR_materials_specular"
	],
	"scene":0,
	"scenes":[
		{
			"name":"Scene",
			"nodes":[
				11
			]
		}
	],
	"nodes":[
		{
			"mesh":0,
			"name":"Object_10"
		},
		{
			"mesh":1,
			"name":"Object_11"
		},
		{
			"mesh":2,
			"name":"Object_12"
		},
		{
			"mesh":3,
			"name":"Object_3"
		},
		{
			"mesh":4,
			"name":"Object_4"
		},
		{
			"mesh":5,
			"name":"Object_5"
		},
		{
			"mesh":6,
			"name":"Object_6"
		},
		{
			"mesh":7,
			"name":"Object_7"
		},
		{
			"mesh":8,
			"name":"Object_8"
		},
		{
			"mesh":9,
			"name":"Object_9"
		},
		{
			"children":[
				0,
				1,
				2,
				3,
				4,
				5,
				6,
				7,
				8,
				9
			],
			"name":"low poly forest 2.obj.cleaner.materialmerger.gles"
		},
		{
			"children":[
				10
			],
			"name":"Sketchfab_model",
			"rotation":[
				-0.70710688829422,
				0,
				0,
				0.7071066498756409
			]
		}
	],
	"materials":[
		{
			"doubleSided":true,
			"extensions":{
				"KHR_materials_specular":{
					"specularFactor":0.3058512806892395
				}
			},
			"name":"Material.001",
			"pbrMetallicRoughness":{
				"baseColorTexture":{
					"index":0
				},
				"metallicFactor":0,
				"metallicRoughnessTexture":{
					"index":1
				}
			}
		}
	],
	"meshes":[
		{
			"name":"Object_8",
			"primitives":[
				{
					"attributes":{
						"POSITION":0,
						"NORMAL":1,
						"TEXCOORD_0":2
					},
					"indices":3,
					"material":0
				}
			]
		},
		{
			"name":"Object_9",
			"primitives":[
				{
					"attributes":{
						"POSITION":4,
						"NORMAL":5,
						"TEXCOORD_0":6
					},
					"indices":7,
					"material":0
				}
			]
		},
		{
			"name":"Object_10",
			"primitives":[
				{
					"attributes":{
						"POSITION":8,
						"NORMAL":9,
						"TEXCOORD_0":10
					},
					"indices":11,
					"material":0
				}
			]
		},
		{
			"name":"Object_1",
			"primitives":[
				{
					"attributes":{
						"POSITION":12,
						"NORMAL":13,
						"TEXCOORD_0":14
					},
					"indices":15,
					"material":0
				}
			]
		},
		{
			"name":"Object_2",
			"primitives":[
				{
					"attributes":{
						"POSITION":16,
						"NORMAL":17,
						"TEXCOORD_0":18
					},
					"indices":19,
					"material":0
				}
			]
		},
		{
			"name":"Object_3",
			"primitives":[
				{
					"attributes":{
						"POSITION":20,
						"NORMAL":21,
						"TEXCOORD_0":22
					},
					"indices":23,
					"material":0
				}
			]
		},
		{
			"name":"Object_4",
			"primitives":[
				{
					"attributes":{
						"POSITION":24,
						"NORMAL":25,
						"TEXCOORD_0":26
					},
					"indices":27,
					"material":0
				}
			]
		},
		{
			"name":"Object_5",
			"primitives":[
				{
					"attributes":{
						"POSITION":28,
						"NORMAL":29,
						"TEXCOORD_0":30
					},
					"indices":31,
					"material":0
				}
			]
		},
		{
			"name":"Object_6",
			"primitives":[
				{
					"attributes":{
						"POSITION":32,
						"NORMAL":33,
						"TEXCOORD_0":34
					},
					"indices":35,
					"material":0
				}
			]
		},
		{
			"name":"Object_7",
			"primitives":[
				{
					"attributes":{
						"POSITION":36,
						"NORMAL":37,
						"TEXCOORD_0":38
					},
					"indices":39,
					"material":0
				}
			]
		}
	],
	"textures":[
		{
			"sampler":0,
			"source":0
		},
		{
			"sampler":0,
			"source":1
		}
	],
	"images":[
		{
			"mimeType":"image/jpeg",
			"name":"Material_baseColor",
			"uri":"Material_baseColor.jpg"
		},
		{
			"mimeType":"image/png",
			"name":"Material_metallicRoughness",
			"uri":"Material_metallicRoughness.png"
		}
	],
	"accessors":[
		{
			"bufferView":0,
			"componentType":5126,
			"count":10112,
			"max":[
				8.985795021057129,
				-1.1464550495147705,
				0.730010986328125
			],
			"min":[
				-5.610917091369629,
				-17.682619094848633,
				-0.57921302318573
			],
			"type":"VEC3"
		},
		{
			"bufferView":1,
			"componentType":5126,
			"count":10112,
			"type":"VEC3"
		},
		{
			"bufferView":2,
			"componentType":5126,
			"count":10112,
			"type":"VEC2"
		},
		{
			"bufferView":3,
			"componentType":5123,
			"count":23040,
			"type":"SCALAR"
		},
		{
			"bufferView":4,
			"componentType":5126,
			"count":13346,
			"max":[
				24.24176025390625,
				17.512649536132812,
				13.392789840698242
			],
			"min":[
				-26.828479766845703,
				-29.77259063720703,
				-4.317637920379639
			],
			"type":"VEC3"
		},
		{
			"bufferView":5,
			"componentType":5126,
			"count":13346,
			"type":"VEC3"
		},
		{
			"bufferView":6,
			"componentType":5126,
			"count":13346,
			"type":"VEC2"
		},
		{
			"bufferView":7,
			"componentType":5123,
			"count":34776,
			"type":"SCALAR"
		},
		{
			"bufferView":8,
			"componentType":5126,
			"count":1896,
			"max":[
				8.985795021057129,
				0.6868259906768799,
				0.730010986328125
			],
			"min":[
				-6.78688907623291,
				-8.286028861999512,
				-0.5338860154151917
			],
			"type":"VEC3"
		},
		{
			"bufferView":9,
			"componentType":5126,
			"count":1896,
			"type":"VEC3"
		},
		{
			"bufferView":10,
			"componentType":5126,
			"count":1896,
			"type":"VEC2"
		},
		{
			"bufferView":11,
			"componentType":5123,
			"count":4320,
			"type":"SCALAR"
		},
		{
			"bufferView":12,
			"componentType":5126,
			"count":10886,
			"max":[
				7.178761959075928,
				2.447484016418457,
				0.7300099730491638
			],
			"min":[
				-5.7033281326293945,
				-25.88051986694336,
				-0.5880399942398071
			],
			"type":"VEC3"
		},
		{
			"bufferView":13,
			"componentType":5126,
			"count":10886,
			"type":"VEC3"
		},
		{
			"bufferView":14,
			"componentType":5126,
			"count":10886,
			"type":"VEC2"
		},
		{
			"bufferView":15,
			"componentType":5123,
			"count":25038,
			"type":"SCALAR"
		},
		{
			"bufferView":16,
			"componentType":5126,
			"count":10853,
			"max":[
				9.174871444702148,
				3.2375741004943848,
				5.119640827178955
			],
			"min":[
				-15.333820343017578,
				-24.902509689331055,
				-0.6400039792060852
			],
			"type":"VEC3"
		},
		{
			"bufferView":17,
			"componentType":5126,
			"count":10853,
			"type":"VEC3"
		},
		{
			"bufferView":18,
			"componentType":5126,
			"count":10853,
			"type":"VEC2"
		},
		{
			"bufferView":19,
			"componentType":5123,
			"count":25428,
			"type":"SCALAR"
		},
		{
			"bufferView":20,
			"componentType":5126,
			"count":11200,
			"max":[
				9.443120002746582,
				7.446030139923096,
				13.106229782104492
			],
			"min":[
				-11.616279602050781,
				-21.64760971069336,
				-1.0228610038757324
			],
			"type":"VEC3"
		},
		{
			"bufferView":21,
			"componentType":5126,
			"count":11200,
			"type":"VEC3"
		},
		{
			"bufferView":22,
			"componentType":5126,
			"count":11200,
			"type":"VEC2"
		},
		{
			"bufferView":23,
			"componentType":5123,
			"count":36426,
			"type":"SCALAR"
		},
		{
			"bufferView":24,
			"componentType":5126,
			"count":13010,
			"max":[
				12.573280334472656,
				10.210140228271484,
				15.3533296585083
			],
			"min":[
				-14.24804973602295,
				-27.09140968322754,
				-1.0083600282669067
			],
			"type":"VEC3"
		},
		{
			"bufferView":25,
			"componentType":5126,
			"count":13010,
			"type":"VEC3"
		},
		{
			"bufferView":26,
			"componentType":5126,
			"count":13010,
			"type":"VEC2"
		},
		{
			"bufferView":27,
			"componentType":5123,
			"count":39126,
			"type":"SCALAR"
		},
		{
			"bufferView":28,
			"componentType":5126,
			"count":13119,
			"max":[
				9.513296127319336,
				12.52103042602539,
				17.01689910888672
			],
			"min":[
				-6.296541213989258,
				-26.37928009033203,
				-0.8754199743270874
			],
			"type":"VEC3"
		},
		{
			"bufferView":29,
			"componentType":5126,
			"count":13119,
			"type":"VEC3"
		},
		{
			"bufferView":30,
			"componentType":5126,
			"count":13119,
			"type":"VEC2"
		},
		{
			"bufferView":31,
			"componentType":5123,
			"count":39000,
			"type":"SCALAR"
		},
		{
			"bufferView":32,
			"componentType":5126,
			"count":19109,
			"max":[
				23.87664031982422,
				17.219970703125,
				12.272489547729492
			],
			"min":[
				-25.87257957458496,
				-24.967859268188477,
				-4.317442893981934
			],
			"type":"VEC3"
		},
		{
			"bufferView":33,
			"componentType":5126,
			"count":19109,
			"type":"VEC3"
		},
		{
			"bufferView":34,
			"componentType":5126,
			"count":19109,
			"type":"VEC2"
		},
		{
			"bufferView":35,
			"componentType":5123,
			"count":55683,
			"type":"SCALAR"
		},
		{
			"bufferView":36,
			"componentType":5126,
			"count":13145,
			"max":[
				11.722809791564941,
				8.665005683898926,
				13.39268970489502
			],
			"min":[
				-21.64558982849121,
				-20.638690948486328,
				-2.629132032394409
			],
			"type":"VEC3"
		},
		{
			"bufferView":37,
			"componentType":5126,
			"count":13145,
			"type":"VEC3"
		},
		{
			"bufferView":38,
			"componentType":5126,
			"count":13145,
			"type":"VEC2"
		},
		{
			"bufferView":39,
			"componentType":5123,
			"count":34635,
			"type":"SCALAR"
		}
	],
	"bufferViews":[
		{
			"buffer":0,
			"byteLength":121344,
			"byteOffset":0,
			"target":34962
		},
		{
			"buffer":0,
			"byteLength":121344,
			"byteOffset":121344,
			"target":34962
		},
		{
			"buffer":0,
			"byteLength":80896,
			"byteOffset":242688,
			"target":34962
		},
		{
			"buffer":0,
			"byteLength":46080,
			"byteOffset":323584,
			"target":34963
		},
		{
			"buffer":0,
			"byteLength":160152,
			"byteOffset":369664,
			"target":34962
		},
		{
			"buffer":0,
			"byteLength":160152,
			"byteOffset":529816,
			"target":34962
		},
		{
			"buffer":0,
			"byteLength":106768,
			"byteOffset":689968,
			"target":34962
		},
		{
			"buffer":0,
			"byteLength":69552,
			"byteOffset":796736,
			"target":34963
		},
		{
			"buffer":0,
			"byteLength":22752,
			"byteOffset":866288,
			"target":34962
		},
		{
			"buffer":0,
			"byteLength":22752,
			"byteOffset":889040,
			"target":34962
		},
		{
			"buffer":0,
			"byteLength":15168,
			"byteOffset":911792,
			"target":34962
		},
		{
			"buffer":0,
			"byteLength":8640,
			"byteOffset":926960,
			"target":34963
		},
		{
			"buffer":0,
			"byteLength":130632,
			"byteOffset":935600,
			"target":34962
		},
		{
			"buffer":0,
			"byteLength":130632,
			"byteOffset":1066232,
			"target":34962
		},
		{
			"buffer":0,
			"byteLength":87088,
			"byteOffset":1196864,
			"target":34962
		},
		{
			"buffer":0,
			"byteLength":50076,
			"byteOffset":1283952,
			"target":34963
		},
		{
			"buffer":0,
			"byteLength":130236,
			"byteOffset":1334028,
			"target":34962
		},
		{
			"buffer":0,
			"byteLength":130236,
			"byteOffset":1464264,
			"target":34962
		},
		{
			"buffer":0,
			"byteLength":86824,
			"byteOffset":1594500,
			"target":34962
		},
		{
			"buffer":0,
			"byteLength":50856,
			"byteOffset":1681324,
			"target":34963
		},
		{
			"buffer":0,
			"byteLength":134400,
			"byteOffset":1732180,
			"target":34962
		},
		{
			"buffer":0,
			"byteLength":134400,
			"byteOffset":1866580,
			"target":34962
		},
		{
			"buffer":0,
			"byteLength":89600,
			"byteOffset":2000980,
			"target":34962
		},
		{
			"buffer":0,
			"byteLength":72852,
			"byteOffset":2090580,
			"target":34963
		},
		{
			"buffer":0,
			"byteLength":156120,
			"byteOffset":2163432,
			"target":34962
		},
		{
			"buffer":0,
			"byteLength":156120,
			"byteOffset":2319552,
			"target":34962
		},
		{
			"buffer":0,
			"byteLength":104080,
			"byteOffset":2475672,
			"target":34962
		},
		{
			"buffer":0,
			"byteLength":78252,
			"byteOffset":2579752,
			"target":34963
		},
		{
			"buffer":0,
			"byteLength":157428,
			"byteOffset":2658004,
			"target":34962
		},
		{
			"buffer":0,
			"byteLength":157428,
			"byteOffset":2815432,
			"target":34962
		},
		{
			"buffer":0,
			"byteLength":104952,
			"byteOffset":2972860,
			"target":34962
		},
		{
			"buffer":0,
			"byteLength":78000,
			"byteOffset":3077812,
			"target":34963
		},
		{
			"buffer":0,
			"byteLength":229308,
			"byteOffset":3155812,
			"target":34962
		},
		{
			"buffer":0,
			"byteLength":229308,
			"byteOffset":3385120,
			"target":34962
		},
		{
			"buffer":0,
			"byteLength":152872,
			"byteOffset":3614428,
			"target":34962
		},
		{
			"buffer":0,
			"byteLength":111366,
			"byteOffset":3767300,
			"target":34963
		},
		{
			"buffer":0,
			"byteLength":157740,
			"byteOffset":3878668,
			"target":34962
		},
		{
			"buffer":0,
			"byteLength":157740,
			"byteOffset":4036408,
			"target":34962
		},
		{
			"buffer":0,
			"byteLength":105160,
			"byteOffset":4194148,
			"target":34962
		},
		{
			"buffer":0,
			"byteLength":69270,
			"byteOffset":4299308,
			"target":34963
		}
	],
	"samplers":[
		{
			"magFilter":9729,
			"minFilter":9987
		}
	],
	"buffers":[
		{
			"byteLength":4368580,
			"uri":"scene.bin"
		}
	]
}
