<svg width="32" height="32" viewBox="0 0 32 32" fill="none" xmlns="http://www.w3.org/2000/svg">
<path d="M16.19 19.985C16.16 19.985 16.125 19.98 16.095 19.965C15.97 19.91 15.91 19.765 15.96 19.64C17.79 15.305 17.67 10.515 15.625 6.5C15.565 6.375 15.61 6.225 15.735 6.165C15.855 6.105 16.01 6.15 16.07 6.275C18.18 10.425 18.305 15.365 16.42 19.835C16.38 19.93 16.285 19.99 16.19 19.99V19.985ZM17.195 19.92C17.125 19.92 17.05 19.89 17.005 19.83C16.915 19.725 16.93 19.565 17.035 19.48C19.09 17.77 20.195 15.525 20.215 12.98C20.215 12.845 20.33 12.73 20.465 12.73C20.605 12.73 20.715 12.845 20.715 12.98C20.69 15.635 19.495 18.075 17.355 19.855C17.31 19.895 17.25 19.915 17.195 19.915V19.92ZM19.635 19.985C19.545 19.985 19.455 19.935 19.41 19.85C19.35 19.725 19.395 19.575 19.52 19.515C20.36 19.09 21.145 18.565 21.845 17.955C23.88 16.185 25.24 14.635 25.715 12.39C25.745 12.255 25.875 12.17 26.01 12.195C26.145 12.225 26.23 12.355 26.205 12.49C25.645 15.135 23.91 16.825 22.175 18.33C21.445 18.965 20.625 19.515 19.745 19.955C19.71 19.975 19.67 19.98 19.635 19.98V19.985Z" fill="white"/>
<path d="M14.185 5.58986C13.6 5.07486 13.27 4.25986 13.375 3.50486C13.48 2.74986 14.035 2.08486 14.755 1.90986C15.475 1.73486 16.325 2.07486 16.735 2.73486C17.005 3.16986 17.085 3.69986 17.04 4.19986C16.98 4.96486 16.605 5.90486 15.975 6.33986C15.64 6.57486 14.54 5.89986 14.185 5.58986Z" fill="white"/>
<path d="M15.785 6.63512C15.09 6.63512 14.03 5.78512 14.02 5.77512C13.365 5.20012 13.01 4.29012 13.125 3.46512C13.245 2.60012 13.89 1.86012 14.69 1.66012C15.53 1.45012 16.48 1.85012 16.94 2.60012C17.285 3.16012 17.32 3.78512 17.285 4.21512C17.22 5.01512 16.835 6.04012 16.11 6.54012C16.015 6.60512 15.905 6.63012 15.78 6.63012L15.785 6.63512ZM14.35 5.40012C14.785 5.78012 15.655 6.20512 15.835 6.13012C16.415 5.72512 16.74 4.83512 16.79 4.17512C16.82 3.82012 16.795 3.31012 16.52 2.86512C16.17 2.30512 15.435 1.99512 14.81 2.15012C14.2 2.30012 13.71 2.87012 13.62 3.53512C13.53 4.20012 13.815 4.93012 14.35 5.40012Z" fill="white"/>
<path d="M19.18 11.6151C18.83 10.9201 18.83 10.0401 19.21 9.37509C19.59 8.71009 20.355 8.31009 21.09 8.41509C21.825 8.52009 22.48 9.15509 22.615 9.92509C22.7 10.4301 22.575 10.9501 22.35 11.3951C22.005 12.0801 21.305 12.8101 20.555 12.9801C20.155 13.0701 19.39 12.0351 19.18 11.6151Z" fill="white"/>
<path d="M20.51 13.235C19.805 13.235 18.97 11.74 18.96 11.725C18.57 10.945 18.585 9.96997 19 9.24997C19.435 8.49497 20.315 8.04997 21.13 8.16497C21.985 8.28997 22.715 9.00997 22.865 9.87997C22.975 10.53 22.77 11.125 22.575 11.505C22.215 12.22 21.47 13.025 20.615 13.22C20.58 13.23 20.545 13.23 20.51 13.23V13.235ZM20.86 8.64497C20.3 8.64497 19.735 8.97497 19.435 9.49497C19.1 10.075 19.09 10.86 19.41 11.495C19.67 12.01 20.295 12.725 20.51 12.73C21.2 12.575 21.835 11.87 22.13 11.28C22.29 10.965 22.46 10.48 22.375 9.96497C22.265 9.31497 21.7 8.74996 21.06 8.65996C20.995 8.64996 20.925 8.64497 20.86 8.64497ZM14.895 19.985C14.83 19.985 14.765 19.96 14.72 19.91C12.94 18.135 12.015 15.91 12.035 13.475C12.035 13.34 12.15 13.225 12.285 13.225C12.425 13.225 12.535 13.34 12.535 13.475C12.515 15.77 13.39 17.87 15.07 19.55C15.17 19.65 15.17 19.805 15.07 19.905C15.02 19.955 14.955 19.98 14.895 19.98V19.985Z" fill="white"/>
<path d="M13.6 12.1351C13.96 11.4451 13.98 10.5651 13.61 9.89508C13.24 9.22508 12.49 8.80508 11.75 8.90008C11.01 8.99508 10.345 9.61508 10.195 10.3801C10.1 10.8801 10.215 11.4051 10.43 11.8551C10.76 12.5451 11.445 13.2901 12.19 13.4751C12.59 13.5751 13.37 12.5501 13.59 12.1351H13.6Z" fill="white"/>
<path d="M12.25 13.7349C12.21 13.7349 12.175 13.7349 12.135 13.7199C11.285 13.5099 10.555 12.6899 10.205 11.9699C10.02 11.5849 9.82503 10.9849 9.94503 10.3399C10.11 9.47486 10.855 8.76486 11.71 8.65486C12.53 8.54986 13.4 9.01486 13.82 9.77986C14.22 10.5099 14.22 11.4799 13.81 12.2549C13.81 12.2549 12.945 13.7349 12.24 13.7349H12.25ZM11.955 9.13986C11.895 9.13986 11.84 9.13986 11.78 9.14986C11.14 9.22986 10.565 9.77986 10.44 10.4299C10.34 10.9449 10.505 11.4299 10.655 11.7499C10.94 12.3449 11.56 13.0649 12.25 13.2349C12.445 13.2299 13.105 12.5299 13.37 12.0199C13.7 11.3899 13.705 10.6049 13.385 10.0199C13.09 9.48486 12.52 9.13986 11.95 9.13986H11.955ZM13.375 19.9849C13.335 19.9849 13.29 19.9749 13.25 19.9549C9.64503 17.9149 7.29503 15.0199 6.81003 12.0199C6.79003 11.8849 6.88003 11.7549 7.01503 11.7349C7.15003 11.7149 7.28003 11.8049 7.30003 11.9399C7.76003 14.7899 10.015 17.5549 13.49 19.5199C13.61 19.5899 13.655 19.7399 13.585 19.8599C13.54 19.9399 13.455 19.9849 13.365 19.9849H13.375Z" fill="white"/>
<path d="M8.35999 10.0801C8.65499 9.17012 8.49499 8.10012 7.90999 7.36512C7.32499 6.63012 6.32499 6.28012 5.45499 6.54512C4.57999 6.81012 3.89999 7.70012 3.87999 8.66012C3.86999 9.28512 4.11499 9.89512 4.47499 10.4001C5.01999 11.1701 5.99999 11.9251 6.94499 11.9951C7.44499 12.0301 8.18499 10.6301 8.36499 10.0801H8.35999Z" fill="white"/>
<path d="M6.95998 12.2452C6.95998 12.2452 6.93498 12.2452 6.92498 12.2452C5.86998 12.1702 4.82998 11.3402 4.26998 10.5452C3.96998 10.1202 3.61498 9.45015 3.62998 8.66015C3.64998 7.60015 4.38498 6.61015 5.37998 6.31015C6.32998 6.02015 7.44998 6.39515 8.10498 7.21515C8.72998 8.00015 8.92498 9.16015 8.59998 10.1602C8.50998 10.4402 7.73998 12.2452 6.95998 12.2452ZM6.04998 6.71015C5.86998 6.71015 5.69498 6.73515 5.52498 6.78515C4.74498 7.02015 4.14498 7.83015 4.12998 8.66515C4.11998 9.32015 4.41998 9.89015 4.67498 10.2552C5.14998 10.9252 6.06998 11.6802 6.95498 11.7452H6.95998C7.20498 11.7452 7.87998 10.7302 8.11498 10.0052C8.38998 9.15515 8.22998 8.18515 7.70498 7.52515C7.29498 7.01015 6.65998 6.71015 6.03998 6.71015H6.04998Z" fill="white"/>
<path d="M24.66 11.0648C24.31 10.3698 24.31 9.4898 24.69 8.8248C25.07 8.1598 25.835 7.7598 26.57 7.8648C27.305 7.9698 27.96 8.6048 28.095 9.3748C28.18 9.8798 28.055 10.3998 27.83 10.8448C27.485 11.5298 26.785 12.2598 26.035 12.4298C25.635 12.5198 24.87 11.4848 24.66 11.0648Z" fill="white"/>
<path d="M25.985 12.69C25.28 12.69 24.445 11.2 24.435 11.18C24.045 10.4 24.06 9.42504 24.475 8.70504C24.91 7.95004 25.785 7.50504 26.605 7.62004C27.46 7.74504 28.19 8.46504 28.34 9.33504C28.45 9.98504 28.245 10.58 28.05 10.96C27.69 11.675 26.945 12.48 26.09 12.675C26.055 12.685 26.02 12.685 25.985 12.685V12.69ZM26.335 8.10004C25.775 8.10004 25.21 8.43004 24.91 8.95004C24.575 9.53004 24.565 10.315 24.885 10.95C25.14 11.46 25.785 12.185 25.985 12.185C26.675 12.03 27.31 11.325 27.605 10.735C27.765 10.42 27.935 9.93504 27.85 9.42004C27.74 8.77004 27.175 8.20504 26.535 8.11504C26.47 8.10504 26.4 8.10004 26.335 8.10004Z" fill="white"/>
<path d="M19.795 19.7349H12.69C11.71 19.7349 10.82 20.2899 10.375 21.1599C9.92998 22.0299 9.66998 23.0499 9.66998 24.1149C9.66998 26.5549 11 28.6849 12.975 29.8149C13.355 30.0349 13.795 30.1399 14.235 30.1399H18.25C18.69 30.1399 19.125 30.0349 19.51 29.8149C21.485 28.6799 22.815 26.5549 22.815 24.1149C22.815 23.0499 22.56 22.0449 22.11 21.1599C21.66 20.2749 20.775 19.7349 19.795 19.7349Z" fill="white"/>
<path d="M18.25 30.3899H14.235C13.735 30.3899 13.26 30.2649 12.85 30.0349C10.735 28.8199 9.41998 26.5499 9.41998 24.1149C9.41998 23.0349 9.66498 22.0049 10.155 21.0449C10.645 20.0799 11.615 19.4849 12.69 19.4849H19.795C20.87 19.4849 21.84 20.0849 22.33 21.0449C22.815 22.0049 23.065 23.0349 23.065 24.1149C23.065 26.5499 21.75 28.8199 19.635 30.0349C19.23 30.2699 18.75 30.3899 18.255 30.3899H18.25ZM12.69 19.9849C11.805 19.9849 11.005 20.4799 10.6 21.2749C10.15 22.1649 9.91998 23.1199 9.91998 24.1199C9.91998 26.3749 11.14 28.4799 13.1 29.6049C13.43 29.7949 13.825 29.8949 14.235 29.8949H18.25C18.66 29.8949 19.05 29.7949 19.385 29.6049C21.345 28.4799 22.565 26.3749 22.565 24.1199C22.565 23.1199 22.335 22.1649 21.885 21.2749C21.48 20.4799 20.68 19.9849 19.795 19.9849H12.69Z" fill="white"/>
</svg>
