<svg width="32" height="32" viewBox="0 0 32 32" fill="none" xmlns="http://www.w3.org/2000/svg">
<g clip-path="url(#clip0_1105_101)">
<path fill-rule="evenodd" clip-rule="evenodd" d="M15.211 3.17712C15.3117 3.94878 15.511 4.89212 15.8427 6.06678C16.619 8.81612 17.2097 11.5641 16.6853 14.7058C16.4597 16.0594 16.5133 17.3378 16.659 18.3814C16.697 18.6548 16.95 18.8458 17.2233 18.8074C17.4967 18.7694 17.6877 18.5164 17.6493 18.2431C17.5157 17.2854 17.4647 16.1124 17.6717 14.8704C18.2223 11.5708 17.6203 8.68245 16.805 5.79512C16.053 3.13178 15.9967 1.80345 16.2733 0.92845C16.3853 0.57345 16.2257 0.377117 16.1813 0.32945C16.101 0.242117 16.0027 0.190783 15.889 0.172783C15.7953 0.157783 15.653 0.155783 15.498 0.271117C15.433 0.31945 15.2283 0.579116 15.0017 1.04178C14.302 2.47112 12.938 6.16278 13.5163 9.72745C13.858 11.8331 13.9433 13.0464 13.865 13.9438C13.841 14.2188 14.0447 14.4614 14.3197 14.4854C14.5947 14.5094 14.8373 14.3058 14.8613 14.0308C14.944 13.0811 14.865 11.7958 14.5033 9.56745C14.1257 7.23778 14.644 4.85012 15.211 3.17712ZM11.0747 9.32645C11.1683 10.6398 11.5107 11.9314 12.2353 14.2158C12.7157 15.7301 12.696 17.1624 12.5463 18.2441C12.5087 18.5174 12.7 18.7698 12.9733 18.8078C13.2467 18.8454 13.4993 18.6541 13.537 18.3808C13.7027 17.1814 13.7213 15.5928 13.1887 13.9134C12.1603 10.6718 11.9287 9.54545 12.1003 7.29045C12.128 6.92478 12.075 6.70778 12.0277 6.61412C11.9613 6.48212 11.8687 6.40778 11.7797 6.36345C11.6223 6.28478 11.2817 6.23412 11.0117 6.62712C10.7783 6.96678 10.3617 8.05945 10.0027 9.45445C9.47765 11.4944 9.06032 14.1878 9.41899 16.0161C9.60565 16.9674 9.70599 17.7191 9.73932 18.3391C9.75399 18.6148 9.98965 18.8264 10.2653 18.8118C10.5407 18.7971 10.7527 18.5611 10.738 18.2858C10.7027 17.6288 10.5983 16.8318 10.4003 15.8234C10.0653 14.1174 10.4813 11.6071 10.971 9.70378C11.0033 9.57812 11.0383 9.45178 11.0747 9.32645ZM20.1933 9.45545C20.292 10.6704 20.6273 11.8814 21.3247 13.9941C21.8663 15.6351 21.7537 17.1731 21.5487 18.2158C21.4953 18.4868 21.672 18.7498 21.9427 18.8031C22.2133 18.8561 22.4763 18.6798 22.5297 18.4088C22.7593 17.2408 22.8807 15.5188 22.2743 13.6808C21.2727 10.6454 21.0463 9.59112 21.213 7.47978C21.2413 7.12245 21.1857 6.91112 21.1377 6.81978C21.07 6.69078 20.9773 6.61812 20.8867 6.57445C20.7307 6.49945 20.402 6.45312 20.1343 6.82778C19.905 7.14878 19.4953 8.17912 19.1427 9.49578C18.628 11.4184 18.22 13.9568 18.5717 15.6798C18.8043 16.8191 18.8997 17.6508 18.8957 18.3094C18.894 18.5854 19.117 18.8108 19.3927 18.8124C19.6687 18.8141 19.894 18.5914 19.8957 18.3154C19.9 17.6051 19.8023 16.7078 19.5517 15.4798C19.2257 13.8838 19.6317 11.5351 20.1087 9.75445C20.1353 9.65478 20.1637 9.55478 20.1933 9.45545Z" fill="white"/>
<path fill-rule="evenodd" clip-rule="evenodd" d="M22.1857 29.1938C22.1857 29.1938 23.121 21.5702 23.4213 19.1212C23.462 18.7895 23.3587 18.4562 23.137 18.2062C22.9157 17.9558 22.5977 17.8125 22.2633 17.8125H9.73666C9.40233 17.8125 9.08433 17.9558 8.863 18.2062C8.64133 18.4562 8.538 18.7895 8.57866 19.1212C8.879 21.5702 9.81433 29.1938 9.81433 29.1938C9.848 29.4678 10.0977 29.6628 10.3717 29.6292C10.6457 29.5958 10.8407 29.3462 10.807 29.0722C10.807 29.0722 9.87166 21.4485 9.57133 18.9995C9.56533 18.9522 9.58033 18.9045 9.61166 18.8688C9.64333 18.8328 9.689 18.8125 9.73666 18.8125H22.2633C22.311 18.8125 22.3567 18.8328 22.3883 18.8688C22.4197 18.9045 22.4347 18.9522 22.4287 18.9995L21.193 29.0722C21.1593 29.3462 21.3543 29.5958 21.6283 29.6292C21.9023 29.6628 22.152 29.4678 22.1857 29.1938Z" fill="white"/>
<path fill-rule="evenodd" clip-rule="evenodd" d="M13.0557 22.2886H22.5903C22.8663 22.2886 23.0903 22.0646 23.0903 21.7886C23.0903 21.5126 22.8663 21.2886 22.5903 21.2886H13.0557C12.7797 21.2886 12.5557 21.5126 12.5557 21.7886C12.5557 22.0646 12.7797 22.2886 13.0557 22.2886ZM9.40966 22.2886H11.0537C11.3297 22.2886 11.5537 22.0646 11.5537 21.7886C11.5537 21.5126 11.3297 21.2886 11.0537 21.2886H9.40966C9.13366 21.2886 8.90966 21.5126 8.90966 21.7886C8.90966 22.0646 9.13366 22.2886 9.40966 22.2886ZM23.71 30.2159C23.8467 29.8572 23.7987 29.4542 23.5807 29.1379C23.363 28.8219 23.0037 28.6332 22.62 28.6332H9.38C8.99633 28.6332 8.637 28.8219 8.41933 29.1379C8.20133 29.4542 8.15333 29.8572 8.29 30.2159C8.37366 30.4346 8.46133 30.6642 8.539 30.8682C8.761 31.4492 9.31833 31.8332 9.94033 31.8332C12.256 31.8332 19.744 31.8332 22.0597 31.8332C22.6817 31.8332 23.239 31.4492 23.461 30.8682C23.5387 30.6642 23.6263 30.4346 23.71 30.2159ZM22.7757 29.8592L22.5267 30.5116C22.4527 30.7052 22.267 30.8332 22.0597 30.8332C19.744 30.8332 12.256 30.8332 9.94033 30.8332C9.733 30.8332 9.54733 30.7052 9.47333 30.5116L9.22433 29.8592C9.20466 29.8079 9.21166 29.7502 9.24266 29.7052C9.274 29.6602 9.32533 29.6332 9.38 29.6332H22.62C22.6747 29.6332 22.726 29.6602 22.7573 29.7052C22.7883 29.7502 22.7953 29.8079 22.7757 29.8592Z" fill="white"/>
</g>
<defs>
<clipPath id="clip0_1105_101">
<rect width="32" height="32" fill="white"/>
</clipPath>
</defs>
</svg>
