<svg width="32" height="32" viewBox="0 0 32 32" fill="none" xmlns="http://www.w3.org/2000/svg">
<path d="M24.2 12.1928L23.8 24.2998C23.7659 25.3367 23.3291 26.3195 22.5823 27.0396C21.8355 27.7597 20.8374 28.1605 19.8 28.1568H12.2C11.1632 28.1605 10.1658 27.7603 9.41904 27.041C8.67233 26.3218 8.23509 25.34 8.2 24.3038L7.8 12.1928C7.79124 11.9276 7.88821 11.6697 8.06956 11.476C8.2509 11.2823 8.50178 11.1685 8.767 11.1598C9.03221 11.151 9.29004 11.248 9.48377 11.4293C9.67749 11.6107 9.79124 11.8616 9.8 12.1268L10.2 24.2368C10.2199 24.7538 10.4394 25.2429 10.8123 25.6015C11.1853 25.9601 11.6826 26.1602 12.2 26.1598H19.8C20.318 26.1601 20.816 25.9595 21.189 25.6C21.5621 25.2406 21.7811 24.7505 21.8 24.2328L22.2 12.1268C22.2087 11.8616 22.3225 11.6107 22.5162 11.4293C22.7099 11.248 22.9678 11.151 23.233 11.1598C23.4982 11.1685 23.7491 11.2823 23.9304 11.476C24.1118 11.6697 24.2087 11.9276 24.2 12.1928ZM25.523 8.16379C25.523 8.429 25.4176 8.68336 25.2301 8.87089C25.0426 9.05843 24.7882 9.16379 24.523 9.16379H7.478C7.21278 9.16379 6.95843 9.05843 6.77089 8.87089C6.58335 8.68336 6.478 8.429 6.478 8.16379C6.478 7.89857 6.58335 7.64422 6.77089 7.45668C6.95843 7.26914 7.21278 7.16379 7.478 7.16379H10.578C10.8948 7.16464 11.2007 7.04758 11.436 6.83538C11.6713 6.62319 11.8192 6.33104 11.851 6.01579C11.9248 5.27627 12.2713 4.59072 12.8229 4.09269C13.3745 3.59467 14.0918 3.31985 14.835 3.32179H17.165C17.9082 3.31985 18.6255 3.59467 19.1771 4.09269C19.7287 4.59072 20.0752 5.27627 20.149 6.01579C20.1808 6.33104 20.3287 6.62319 20.564 6.83538C20.7993 7.04758 21.1051 7.16464 21.422 7.16379H24.522C24.7872 7.16379 25.0416 7.26914 25.2291 7.45668C25.4166 7.64422 25.522 7.89857 25.522 8.16379H25.523ZM13.587 7.16379H18.415C18.2836 6.86353 18.1976 6.54537 18.16 6.21979C18.1352 5.9733 18.0198 5.74477 17.8362 5.5785C17.6526 5.41222 17.4137 5.32003 17.166 5.31979H14.836C14.5883 5.32003 14.3494 5.41222 14.1658 5.5785C13.9822 5.74477 13.8668 5.9733 13.842 6.21979C13.804 6.54542 13.7187 6.86358 13.587 7.16379ZM14.594 22.3148V13.7998C14.594 13.5346 14.4886 13.2802 14.3011 13.0927C14.1136 12.9051 13.8592 12.7998 13.594 12.7998C13.3288 12.7998 13.0744 12.9051 12.8869 13.0927C12.6994 13.2802 12.594 13.5346 12.594 13.7998V22.3188C12.594 22.584 12.6994 22.8384 12.8869 23.0259C13.0744 23.2134 13.3288 23.3188 13.594 23.3188C13.8592 23.3188 14.1136 23.2134 14.3011 23.0259C14.4886 22.8384 14.594 22.584 14.594 22.3188V22.3148ZM19.408 22.3148V13.7998C19.408 13.5346 19.3026 13.2802 19.1151 13.0927C18.9276 12.9051 18.6732 12.7998 18.408 12.7998C18.1428 12.7998 17.8884 12.9051 17.7009 13.0927C17.5134 13.2802 17.408 13.5346 17.408 13.7998V22.3188C17.408 22.584 17.5134 22.8384 17.7009 23.0259C17.8884 23.2134 18.1428 23.3188 18.408 23.3188C18.6732 23.3188 18.9276 23.2134 19.1151 23.0259C19.3026 22.8384 19.408 22.584 19.408 22.3188V22.3148Z" fill="#656565"/>
</svg>
