<svg width="32" height="32" viewBox="0 0 32 32" fill="none" xmlns="http://www.w3.org/2000/svg">
<path d="M6.66666 24.0002H12.32C12.4955 24.0013 12.6694 23.9676 12.8319 23.9013C12.9943 23.8349 13.1421 23.7372 13.2667 23.6136L22.4933 14.3736L26.28 10.6669C26.405 10.543 26.5042 10.3955 26.5719 10.233C26.6395 10.0705 26.6744 9.89626 26.6744 9.72024C26.6744 9.54423 26.6395 9.36995 26.5719 9.20748C26.5042 9.045 26.405 8.89753 26.28 8.77358L20.6267 3.05358C20.5027 2.92861 20.3552 2.82941 20.1928 2.76172C20.0303 2.69403 19.856 2.65918 19.68 2.65918C19.504 2.65918 19.3297 2.69403 19.1672 2.76172C19.0047 2.82941 18.8573 2.92861 18.7333 3.05358L14.9733 6.82691L5.72 16.0669C5.59642 16.1915 5.49866 16.3393 5.4323 16.5017C5.36595 16.6642 5.33232 16.8381 5.33333 17.0136V22.6669C5.33333 23.0205 5.47381 23.3597 5.72386 23.6097C5.9739 23.8598 6.31304 24.0002 6.66666 24.0002ZM19.68 5.88024L23.4533 9.65358L21.56 11.5469L17.7867 7.77358L19.68 5.88024ZM8 17.5602L15.9067 9.65358L19.68 13.4269L11.7733 21.3336H8V17.5602ZM28 26.6669H4C3.64638 26.6669 3.30724 26.8074 3.05719 27.0574C2.80714 27.3075 2.66666 27.6466 2.66666 28.0002C2.66666 28.3539 2.80714 28.693 3.05719 28.9431C3.30724 29.1931 3.64638 29.3336 4 29.3336H28C28.3536 29.3336 28.6928 29.1931 28.9428 28.9431C29.1929 28.693 29.3333 28.3539 29.3333 28.0002C29.3333 27.6466 29.1929 27.3075 28.9428 27.0574C28.6928 26.8074 28.3536 26.6669 28 26.6669Z" fill="#656565"/>
</svg>
