<svg width="32" height="32" viewBox="0 0 32 32" fill="none" xmlns="http://www.w3.org/2000/svg">
<path d="M27.84 26.8739C27.5793 25.3213 26.3496 24.1125 24.8119 23.8725C24.1867 22.6636 22.9393 21.8932 21.5674 21.8932C20.8622 21.8932 20.1689 22.0976 19.5882 22.4769C19.3985 22.1243 19.1615 21.8013 18.8741 21.5139C18.1096 20.7406 17.0874 20.3169 15.997 20.3169C15.2533 20.3169 14.5244 20.5213 13.8963 20.9036C13.6296 21.0665 13.3837 21.2562 13.1704 21.4636C12.8652 21.7569 12.6044 22.1036 12.4089 22.4769C11.8222 22.0976 11.1319 21.8902 10.4237 21.8902C9.05778 21.8902 7.80445 22.6636 7.18222 23.8695C5.64148 24.1124 4.40889 25.3184 4.15408 26.871C4.11259 27.108 4.18074 27.351 4.34074 27.5406C4.50371 27.7332 4.74667 27.8458 4.99852 27.8458H26.9926C27.2504 27.8458 27.4904 27.7332 27.6533 27.5406C27.8104 27.3539 27.8815 27.111 27.84 26.8739ZM8.58963 26.225C8.38519 26.225 8.19852 26.0384 8.19852 25.831C8.19852 25.6265 8.38519 25.4458 8.58963 25.4458C8.79704 25.4458 8.98074 25.6265 8.98074 25.831C8.97778 26.0384 8.79704 26.225 8.58963 26.225ZM11.2119 24.6843C11.0074 24.6843 10.8207 24.4976 10.8207 24.2902C10.8207 24.0858 11.0074 23.905 11.2119 23.905C11.4193 23.905 11.603 24.0858 11.603 24.2902C11.603 24.5006 11.4193 24.6843 11.2119 24.6843ZM12.5274 26.1836C12.323 26.1836 12.1363 25.9969 12.1363 25.7895C12.1363 25.585 12.323 25.4043 12.5274 25.4043C12.7348 25.4043 12.9185 25.585 12.9185 25.7895C12.9185 25.9969 12.7348 26.1836 12.5274 26.1836ZM15.2119 25.4606C15.0074 25.4606 14.8207 25.2739 14.8207 25.0665C14.8207 24.8621 15.0074 24.6813 15.2119 24.6813C15.4193 24.6813 15.603 24.8621 15.603 25.0665C15.6 25.2769 15.4193 25.4606 15.2119 25.4606ZM15.7778 23.3332C15.5733 23.3332 15.3867 23.1465 15.3867 22.9391C15.3867 22.7347 15.5733 22.5539 15.7778 22.5539C15.9852 22.5539 16.1689 22.7347 16.1689 22.9391C16.1689 23.1465 15.9882 23.3332 15.7778 23.3332ZM17.9082 26.6013C17.7037 26.6013 17.517 26.4147 17.517 26.2073C17.517 26.0028 17.7037 25.8221 17.9082 25.8221C18.1156 25.8221 18.2993 26.0028 18.2993 26.2073C18.2993 26.4176 18.1156 26.6013 17.9082 26.6013ZM18.5837 24.8443C18.3793 24.8443 18.1926 24.6576 18.1926 24.4502C18.1926 24.2458 18.3793 24.065 18.5837 24.065C18.7911 24.065 18.9748 24.2458 18.9748 24.4502C18.9748 24.6606 18.7911 24.8443 18.5837 24.8443ZM21.6326 24.7199C21.4282 24.7199 21.2415 24.5332 21.2415 24.3258C21.2415 24.1213 21.4282 23.9406 21.6326 23.9406C21.84 23.9406 22.0237 24.1213 22.0237 24.3258C22.0207 24.5332 21.84 24.7199 21.6326 24.7199ZM23.9378 26.1836C23.7333 26.1836 23.5467 25.9969 23.5467 25.7895C23.5467 25.585 23.7333 25.4043 23.9378 25.4043C24.1452 25.4043 24.3289 25.585 24.3289 25.7895C24.3289 25.9969 24.1482 26.1836 23.9378 26.1836Z" fill="white"/>
<path d="M16.1185 12.5835V20.6872C16.1185 20.8946 15.9526 21.0576 15.7481 21.0576C15.5437 21.0576 15.3778 20.8946 15.3778 20.6872V12.5835C15.4993 12.5983 15.6237 12.6072 15.7481 12.6072C15.8726 12.6042 15.9941 12.5983 16.1185 12.5835Z" fill="white"/>
<path d="M16.1185 16.871C16.1185 16.9599 16.0859 17.0518 16.0178 17.1229C15.9467 17.1999 15.8459 17.2414 15.7452 17.2414C15.6563 17.2414 15.5644 17.2088 15.4933 17.1406C15.4548 17.1021 15.4163 17.0695 15.3748 17.0369C15.117 16.8058 14.8474 16.5866 14.5718 16.3881C14.6904 16.1629 14.7763 15.9169 14.8237 15.6562C15.0104 15.7836 15.1911 15.9199 15.3748 16.0681C15.5852 16.231 15.7985 16.4088 16 16.5955C16.077 16.6695 16.1185 16.7703 16.1185 16.871ZM24.5037 14.7969C23.8252 15.4162 23.3896 16.154 22.9689 16.8621C22.2963 18.0029 21.6622 19.0755 20.1896 19.1732C20.0444 19.1881 19.9081 19.1969 19.7689 19.1969C18.8741 19.1969 18.1304 18.8799 17.6474 18.2903C17.5467 18.1629 17.4578 18.0295 17.3867 17.8903C19.3778 16.5718 21.6829 15.7451 21.7126 15.7392C21.9052 15.671 22.0059 15.4606 21.9407 15.2681C21.8696 15.0725 21.6592 14.9718 21.4637 15.0369C21.3452 15.0814 19.1555 15.8577 17.1467 17.1584C17.0696 16.6962 17.1081 16.1925 17.2741 15.6799C17.4311 15.1881 17.6889 14.7584 18.0207 14.4266C19.2474 13.2088 21.3867 13.1229 24.3792 14.1747C24.5007 14.2162 24.5955 14.3229 24.6222 14.4503C24.6459 14.5777 24.6015 14.7081 24.5037 14.7969ZM17.3867 17.8903C16.9363 18.1866 16.5067 18.5095 16.1155 18.8562C16.0741 18.8888 16.0326 18.9244 15.997 18.9599C15.923 19.0221 15.8341 19.0577 15.7452 19.0577C15.6444 19.0577 15.5437 19.0162 15.4696 18.9392C15.4074 18.8681 15.3718 18.7792 15.3718 18.6873C15.3718 18.5866 15.4133 18.4858 15.4904 18.4118C15.6859 18.231 15.8992 18.0562 16.1155 17.8844C16.4474 17.6266 16.7911 17.3866 17.1437 17.1584C17.1911 17.4162 17.2681 17.6621 17.3867 17.8903Z" fill="white"/>
<path d="M18.7407 9.60596C18.7407 11.1319 17.5911 12.3971 16.1185 12.5837V8.5393C16.1185 8.33485 15.9526 8.16893 15.7481 8.16893C15.5437 8.16893 15.3778 8.33485 15.3778 8.5393V12.5808C13.8993 12.4 12.7496 11.1319 12.7496 9.603C12.7496 8.07411 15.1674 4.67559 15.4459 4.29337C15.5822 4.10078 15.9081 4.10078 16.0474 4.29337C16.323 4.67856 18.7407 8.08004 18.7407 9.60596ZM9.76296 13.5852C9.7037 13.7778 9.81036 13.9852 10.0089 14.0504C10.0385 14.0623 12.4622 14.8267 14.5718 16.3882C14.4978 16.5245 14.4118 16.6608 14.3111 16.7823C13.8015 17.4074 13.0104 17.7423 12.0563 17.7423C11.9081 17.7423 11.7541 17.7334 11.603 17.7156C10.0563 17.6178 9.38073 16.4741 8.6637 15.2623C8.21333 14.5008 7.74518 13.7126 7.01629 13.0489C6.92444 12.96 6.87999 12.8267 6.9037 12.6993C6.93036 12.5689 7.02222 12.4652 7.14666 12.4208C10.3318 11.3067 12.6074 11.3956 13.917 12.6874C14.2667 13.0371 14.5363 13.4934 14.7052 14.0149C14.8859 14.5867 14.9244 15.1467 14.8237 15.6563C12.6755 14.1186 10.3467 13.3778 10.2311 13.3423C10.0355 13.283 9.82518 13.3897 9.76296 13.5852Z" fill="white"/>
</svg>
