<svg width="32" height="32" viewBox="0 0 32 32" fill="none" xmlns="http://www.w3.org/2000/svg">
<path d="M24.8471 18.9177H6.72944C6.49414 18.9177 6.25885 19.153 6.25885 19.3883V22.5883C6.25885 22.8236 6.49414 23.0589 6.72944 23.0589H24.8471C25.0824 23.0589 25.3177 22.8236 25.3177 22.5883V19.3883C25.3177 19.153 25.1294 18.9177 24.8471 18.9177ZM8.89414 31.153C8.9412 31.3883 9.12944 31.5294 9.36473 31.5294H14.7294C14.9177 31.5294 15.0589 31.4353 15.153 31.2941C15.2941 31.0589 15.6236 30.6824 15.8118 30.6824C15.9059 30.6824 16.0941 30.8236 16.2824 31.2471C16.3765 31.4353 16.5177 31.5294 16.7059 31.5294H22.353C22.5883 31.5294 22.7765 31.3883 22.8236 31.153L24.2353 24H7.3412L8.89414 31.153ZM16.3294 2.25885C16.1412 2.30591 16.0471 2.44709 16 2.63532C16 2.82356 15.153 7.29415 17.0353 9.55297C17.7412 10.4 18.7294 10.8706 20 10.8706H20.0941C20.1412 10.8706 20.1883 10.8706 20.2824 10.8706C20.8 10.8706 22.5412 10.7294 23.7177 9.31768C24.8471 7.90591 25.0824 5.64709 24.4236 2.63532C24.3765 2.44709 24.2353 2.30591 24.0941 2.25885C23.9059 2.21179 23.7177 2.25885 23.6236 2.40003L22.1177 4.18826L20.6589 2.30591C20.5647 2.16473 20.4236 2.11768 20.2824 2.11768C20.1412 2.11768 20 2.21179 19.9059 2.30591L18.6353 4.18826L16.8 2.35297C16.7059 2.25885 16.5177 2.21179 16.3294 2.25885ZM20.4236 8.42356C22.0236 8.42356 22.2118 6.54121 22.2118 6.44709C22.2118 6.16473 22.4471 5.9765 22.7294 6.02356C22.9647 6.02356 23.2 6.25885 23.153 6.54121C23.0588 7.52944 22.353 9.36473 20.4236 9.36473H20.3765C20.1412 9.36473 19.9059 9.12944 19.9059 8.89415C19.953 8.61179 20.1883 8.42356 20.4236 8.42356Z" fill="white"/>
<path d="M10.3059 17.9766C8.70589 15.6236 7.2 12.0942 7.10589 11.906C7.01177 11.6707 7.10589 11.3884 7.34118 11.2942C7.57648 11.2001 7.85883 11.2942 7.95295 11.5295C8.56471 12.8942 10.0706 16.1884 11.4353 17.9766H13.0824C14.0235 16.9413 14.5882 15.7178 14.5882 15.7178C14.6824 15.4825 14.9647 15.3884 15.2 15.4825C15.4353 15.5766 15.5294 15.8589 15.4353 16.0942C15.3882 16.1413 15.0118 16.9883 14.3059 17.9295H18.3529C16.8471 15.8589 15.9059 12.9883 15.8588 12.8472C15.7647 12.6119 15.9059 12.3295 16.1412 12.2354C16.3765 12.1413 16.6588 12.2825 16.7529 12.5178C16.7529 12.5648 17.9294 15.9531 19.5765 17.8825H21.0353C22.9177 15.8119 23.9059 12.4236 23.9529 12.3766C24 12.1413 24.2824 12.0001 24.5177 12.0472C24.7529 12.1413 24.8941 12.3766 24.8471 12.6119C24.8 12.7531 23.9529 15.6236 22.3059 17.8354C23.5765 17.8354 23.8118 17.8354 24.9412 17.8354C26.7765 15.9531 26.8706 12.8001 26.3059 10.2119C26.1647 9.60012 25.6 9.17659 24.7529 9.41188C24 10.4942 23.0118 11.1531 21.7882 11.4354C21.4118 12.0001 21.0824 12.5648 20.8471 13.2236V11.7648C20.5177 11.8119 20.0471 11.8119 19.9059 11.7648V13.3178C19.6706 12.706 19.3882 12.1413 19.0118 11.6707C17.7412 11.4354 16.6588 10.7295 15.9529 9.506C15.1059 9.2707 14.5882 9.69423 14.4 10.4472C13.7412 11.2001 13.2706 12.0942 12.9412 13.0354V10.0707C13.6471 10.0236 14.7294 9.78835 15.6706 8.98835C14.4941 6.49423 14.9647 3.15306 15.1059 2.40011C15.2941 1.41188 16.3294 0.98835 17.1294 1.36482C17.0824 1.22364 17.0824 1.08247 17.0353 0.941291C16.9882 0.753056 16.8471 0.61188 16.7059 0.564821C16.5647 0.517762 16.3294 0.564821 16.2353 0.705997L14.4471 2.82364L12.8 0.658938C12.7059 0.517762 12.5647 0.470703 12.4235 0.470703C12.2824 0.470703 12.1412 0.564821 12.0471 0.658938L10.5882 2.82364L8.51765 0.753056C8.37648 0.61188 8.2353 0.564821 8.04706 0.61188C7.90589 0.658938 7.76471 0.800115 7.71765 0.98835C7.67059 1.17659 6.77648 6.16482 8.89412 8.706C9.64706 9.60011 10.6824 10.0707 11.9529 10.1178V13.2707C11.1059 10.9178 9.50589 8.75306 6.30589 8.51776C6.07059 8.51776 5.88236 8.65894 5.8353 8.89423C5.8353 8.94129 4.42353 14.5413 7.4353 17.9295H10.3059V17.9766ZM9.12942 5.17659C9.12942 4.94129 9.31765 4.706 9.55295 4.65894C9.8353 4.65894 10.0235 4.84717 10.0706 5.08247C10.0706 5.22364 10.3529 7.76482 12.5177 7.76482H12.5647C12.8 7.76482 13.0353 7.95306 13.0353 8.23541C13.0353 8.51776 12.8471 8.706 12.5647 8.706H12.5177C10.1177 8.706 9.27059 6.40011 9.12942 5.17659Z" fill="white"/>
</svg>
