<svg width="32" height="32" viewBox="0 0 32 32" fill="none" xmlns="http://www.w3.org/2000/svg">
<path d="M24.925 11.9501C24.075 13.4751 23.0687 15.8063 22.6187 18.7563C22.3875 17.9751 22.1125 17.1313 21.8062 16.2688C22.775 14.4001 23.8187 12.9563 24.925 11.9501ZM21.525 9.58135C21.1312 10.3876 20.6937 11.4126 20.2875 12.6313C20.1437 12.3376 20 12.0563 19.85 11.7876C20.3875 10.9188 20.95 10.1813 21.525 9.58135ZM11.2812 9.56885C11.6875 9.9876 12.0812 10.4751 12.4687 11.0251C12.3375 11.1376 12.2062 11.2563 12.075 11.3813C11.8062 10.6938 11.5375 10.0876 11.2812 9.56885ZM6.38749 11.9438C7.33749 12.8001 8.23749 13.9876 9.08124 15.4813C8.81874 15.9751 8.56874 16.4751 8.33749 16.9751C7.81874 14.8626 7.04999 13.1501 6.38749 11.9438ZM5.25624 24.7188C5.98124 20.3063 4.40624 16.8501 3.08124 14.8313C4.87499 16.1938 6.21249 18.2626 7.11249 20.0188C6.36874 22.1313 5.93124 23.9376 5.75624 24.7188H5.25624ZM9.65624 24.7188H8.15624H6.78124C7.28749 22.5876 9.23124 15.3063 12.9125 11.9626C11.55 14.4126 9.76249 18.9063 10.575 24.7188H9.65624ZM11.5875 24.7188C11.3875 23.3438 11.3437 22.0376 11.4125 20.8188C11.9812 22.5001 12.35 23.9438 12.5312 24.7188H11.5875ZM12.9187 22.2626C12.6062 21.2001 12.1937 19.9313 11.6625 18.5938C11.8375 17.5813 12.0812 16.6501 12.3562 15.8001C12.8062 17.9251 13 20.0813 12.9187 22.2626ZM13.7312 24.7188C14.1687 21.1251 13.9187 17.5751 12.9875 14.1438C13.1875 13.6751 13.3937 13.2438 13.5937 12.8626C14.4187 14.3813 15.1875 16.2251 15.8875 18.3438C14.9687 21.2001 14.4375 23.7501 14.25 24.7188H13.7312ZM18.4187 22.2563C18.3875 23.0626 18.3125 23.8876 18.2125 24.7188H18.1562H15.2625C15.475 23.6376 16.0062 21.1938 16.8812 18.4938C17.2 17.5126 17.5375 16.5876 17.8937 15.7126C17.9875 16.1813 18.0687 16.6563 18.1375 17.1313C18.3875 18.8001 18.4812 20.5251 18.4187 22.2563ZM19.6562 24.7188H19.225C19.325 23.9001 19.3875 23.0876 19.4187 22.2938C19.4875 20.5001 19.3875 18.7126 19.1312 16.9876C18.9875 15.9813 18.7812 14.9813 18.5312 14.0126C18.5312 14.0001 18.525 13.9876 18.525 13.9751C18 11.9313 17.3312 10.2876 16.7687 9.1001C17.4812 9.85635 18.1687 10.8251 18.8312 12.0126C19.2 12.6688 19.5625 13.4001 19.9062 14.1876C19.9125 14.2001 19.9125 14.2126 19.9187 14.2251V14.2313C20.225 14.9188 20.5187 15.6501 20.7937 16.4063C21.5125 18.4063 22.0437 20.3126 22.3625 21.6063C21.7937 22.9938 21.4375 24.1438 21.275 24.7188H19.6562ZM26.0562 24.7188H23.6562H23.1562H22.3187C22.875 22.8813 24.7562 17.4563 28.2375 14.8251C26.9062 16.8376 25.3312 20.3001 26.0562 24.7188Z" fill="white"/>
</svg>
