<svg width="32" height="32" viewBox="0 0 32 32" fill="none" xmlns="http://www.w3.org/2000/svg">
<path d="M23.2185 8.4683C24.0185 7.72984 24.4185 6.37599 24.0308 5.3483C23.6369 4.28369 22.4431 3.71753 21.4462 3.69907C21.4154 3.1883 21.1877 2.67138 20.7877 2.2283C20.3262 1.71753 19.6985 1.36061 19.0708 1.25599C18 1.07753 16.7077 1.84061 16.1292 2.83138C15.8031 2.71445 15.4462 2.65292 15.0769 2.65292C14.2523 2.65292 13.4892 2.97292 13.0462 3.51445C12.3446 4.36369 12.2892 5.77292 12.8062 6.72676C12.4985 7.00368 12.2462 7.37292 12.0738 7.80984C11.7908 8.50522 11.76 9.25599 11.9877 9.85907C12.3877 10.936 13.8523 11.6929 14.96 11.7298C15.0092 12.1114 15.1446 12.4868 15.3477 12.8191C15.3994 12.9028 15.464 12.9729 15.5231 13.0486C15.2523 13.3981 14.944 13.9618 14.68 14.8492C14.4646 14.5621 14.2112 14.3056 13.9268 14.0868C13.6745 13.896 13.3852 13.7237 13.0468 13.5575C12.7391 13.4098 11.9945 13.0098 11.5883 12.4068C11.5282 12.3137 11.4435 12.2391 11.3435 12.1913C11.2436 12.1435 11.1323 12.1243 11.0222 12.136C10.7945 12.1545 10.5975 12.3021 10.5114 12.5114C10.4868 12.5729 9.88985 14.0375 10.4498 15.4714C10.9298 16.696 12.2037 17.5145 13.6191 17.5145C13.6868 17.5145 13.7483 17.5145 13.816 17.5083C13.9508 17.5015 14.0788 17.4837 14.2037 17.4609C14.1292 18.2338 14.0929 19.1391 14.0972 20.1668H8.43077C8.25231 20.1668 8.08 20.2468 7.96308 20.3883C7.84615 20.5237 7.79692 20.7083 7.82769 20.8868L9.50154 30.2652C9.55692 30.5545 9.80923 30.7698 10.1046 30.7698H19.3231C19.6185 30.7698 19.8769 30.5545 19.9262 30.2652L21.6 20.8868C21.618 20.7993 21.6158 20.7089 21.5934 20.6225C21.571 20.5361 21.529 20.456 21.4708 20.3883C21.4131 20.3186 21.3407 20.2625 21.2588 20.2242C21.1768 20.1859 21.0874 20.1663 20.9969 20.1668H15.3262C15.3058 15.9286 16.1052 14.3329 16.4942 13.8141C16.6425 13.8745 16.7957 13.92 16.9538 13.9452C17.0954 13.9698 17.2431 13.9821 17.3908 13.9821C18.4246 13.9821 19.5938 13.3975 19.9938 12.4068C20.2892 12.4991 20.6154 12.5545 20.9415 12.5545C21.7723 12.5545 22.5292 12.2283 22.9723 11.6929C23.4092 11.1637 23.6246 10.3698 23.5446 9.57599C23.5077 9.16368 23.3908 8.78215 23.2185 8.4683ZM19.7415 9.03445C19.36 9.49599 18.8246 9.77907 18.2277 9.84061C18.1538 9.84676 18.08 9.84676 18.0062 9.84676C17.4515 9.84923 16.916 9.64411 16.5049 9.27173C16.0938 8.89935 15.8368 8.38666 15.7846 7.83445C15.6615 6.60368 16.5662 5.5083 17.7908 5.38522C18.0835 5.35604 18.3791 5.38501 18.6605 5.47048C18.942 5.55595 19.2038 5.69623 19.4308 5.88325C19.6579 6.07027 19.8457 6.30033 19.9835 6.56021C20.1214 6.82009 20.2064 7.10465 20.2338 7.39753C20.2954 7.9883 20.1169 8.57292 19.7415 9.03445Z" fill="white"/>
</svg>
