<svg width="32" height="32" viewBox="0 0 32 32" fill="none" xmlns="http://www.w3.org/2000/svg">
<path d="M31.4667 25.0667C30.0606 27.6849 27.297 29.1879 24.2425 27.8304C22.2546 26.9576 20.1212 27.2485 18.1334 28.1213C18.9091 27.394 18.5697 25.9879 25.1152 22.3516C25.5031 22.4 25.8909 22.5455 26.2788 22.691C29.7212 24.2425 31.1273 24.3879 31.1273 24.3879C31.2728 24.3879 31.4182 24.4849 31.5152 24.6304C31.5152 24.7758 31.5152 24.9213 31.4667 25.0667Z" fill="white"/>
<path d="M20.897 17.7453C22.3515 12.9938 23.3212 7.07863 22.1091 5.28469C21.7212 4.70287 21.0424 4.50893 20.3151 4.75135C18.9576 5.2362 17.8909 6.39984 17.0667 8.14529C16.7273 6.49681 15.7091 2.6665 14.0606 2.6665C13.6242 2.6665 13.2364 2.86044 12.9939 3.24832C11.4424 5.62408 12.703 8.82408 12.8485 13.0423C8.96969 9.35741 9.59999 9.16347 9.06666 9.21196C8.82424 9.26044 8.67878 9.4059 8.6303 9.64832C8.58181 9.89075 7.90302 15.2241 10.3757 20.2665C9.01817 19.4907 7.61211 19.0544 6.15757 19.0059C5.18787 19.0059 3.8303 19.0544 3.58787 20.0726C3.34545 21.1392 4.75151 22.4968 6.10908 23.418C2.5212 23.7574 0.678781 26.0362 0.581811 26.1817C0.484841 26.3271 0.436356 26.4726 0.484841 26.618C0.533326 26.7635 0.678781 26.9089 0.824235 26.9089C0.824235 26.9089 3.00605 27.4907 4.41211 28.218C5.67272 28.8968 7.51514 28.1695 8.72727 27.4423C11.0545 26.618 14.5454 28.4604 15.5151 29.2847C15.6121 29.3332 15.7091 29.3817 15.8061 29.3817C15.8545 29.3817 15.8545 29.3817 15.903 29.3817C16.0485 29.3332 16.1454 29.2847 16.2424 29.1877L17.7939 26.9574C21.5757 21.6726 27.103 21.721 28.2667 18.0847C29.1394 15.418 25.4545 12.7029 20.897 17.7453ZM22.8848 19.8786C21.5273 22.3514 17.1636 23.1271 16.3394 23.2241C13.8667 25.1635 11.297 25.0665 9.93939 24.1938C9.69696 24.0483 9.64848 23.7574 9.79393 23.515C9.93939 23.2726 10.2303 23.2241 10.4727 23.3695C10.5697 23.418 12.6061 24.6786 15.4182 22.7392C12.9939 20.218 12.2182 16.7756 12.1697 16.6301C12.1212 16.3877 12.2667 16.0968 12.5576 16.0483C12.8 15.9998 13.0909 16.1453 13.1394 16.4362C13.1394 16.4847 13.8182 19.4423 15.8061 21.721C16 19.8301 16.5818 17.6968 17.1636 15.9998C15.4182 13.915 15.1273 11.3453 15.1273 11.2483C15.0788 11.0059 15.3212 10.7635 15.5636 10.715C15.8061 10.6665 16.0485 10.9089 16.097 11.1514C16.097 11.1514 16.2909 13.1877 17.5515 14.9332C18.0848 13.4301 18.5697 12.412 18.6182 12.315C18.7151 12.0726 19.0061 11.9756 19.2485 12.0726C19.4909 12.1695 19.5879 12.4604 19.4909 12.7029C18.3758 15.1756 16.9697 19.4423 16.7757 22.3029C18.0848 22.0604 21.1879 21.3332 22.1576 19.5392C22.303 19.2968 22.5939 19.1998 22.8364 19.3453C22.9333 19.3453 23.0303 19.6847 22.8848 19.8786Z" fill="white"/>
</svg>
