<svg width="32" height="32" viewBox="0 0 32 32" fill="none" xmlns="http://www.w3.org/2000/svg">
<path d="M28.85 9.08003C27.9822 8.11014 26.9291 7.32379 25.7526 6.76734C24.5762 6.21089 23.3002 5.89559 22 5.84003C23.0229 5.40636 24.1192 5.17216 25.23 5.15003C25.4506 5.16013 25.6683 5.09693 25.8492 4.97031C26.0301 4.84368 26.164 4.66074 26.23 4.45003C26.2968 4.24239 26.2938 4.01861 26.2216 3.8128C26.1494 3.60698 26.0119 3.43042 25.83 3.31003C22.12 0.840029 17.45 2.45003 16 3.05003C14.55 2.45003 9.88 0.840029 6.15 3.31003C5.97018 3.42988 5.83403 3.60474 5.76192 3.80845C5.68981 4.01216 5.68563 4.23375 5.75 4.44003C5.81601 4.65074 5.94991 4.83368 6.1308 4.96031C6.3117 5.08693 6.52942 5.15013 6.75 5.14003C7.86797 5.16475 8.97098 5.40232 10 5.84003C8.69977 5.89559 7.42382 6.21089 6.24736 6.76734C5.07091 7.32379 4.01776 8.11014 3.15 9.08003C3.01969 9.23812 2.94109 9.43243 2.92482 9.63666C2.90855 9.84089 2.95541 10.0452 3.05904 10.2219C3.16268 10.3986 3.3181 10.5393 3.50428 10.6248C3.69046 10.7103 3.89841 10.7366 4.1 10.7C5.91261 10.3882 7.75134 10.2543 9.59 10.3C7.95091 11.4917 6.64299 13.0818 5.79 14.92C5.70689 15.1278 5.69588 15.3575 5.75875 15.5723C5.82162 15.7871 5.95472 15.9746 6.13676 16.1048C6.3188 16.235 6.53925 16.3003 6.76284 16.2904C6.98642 16.2805 7.20021 16.1958 7.37 16.05C9.15087 14.7729 11.311 14.1351 13.5 14.24L12.67 28H10C9.73478 28 9.48043 28.1054 9.29289 28.2929C9.10536 28.4805 9 28.7348 9 29C9 29.2652 9.10536 29.5196 9.29289 29.7071C9.48043 29.8947 9.73478 30 10 30H22C22.2652 30 22.5196 29.8947 22.7071 29.7071C22.8946 29.5196 23 29.2652 23 29C23 28.7348 22.8946 28.4805 22.7071 28.2929C22.5196 28.1054 22.2652 28 22 28H19.33L18.51 14.23C20.6909 14.1157 22.8468 14.7393 24.63 16C24.799 16.1514 25.0144 16.2407 25.2409 16.2535C25.4674 16.2662 25.6915 16.2016 25.8764 16.0702C26.0613 15.9388 26.196 15.7484 26.2585 15.5303C26.3209 15.3122 26.3073 15.0794 26.22 14.87C25.367 13.0318 24.0591 11.4417 22.42 10.25C24.2587 10.2036 26.0975 10.3376 27.91 10.65C28.1116 10.6866 28.3195 10.6603 28.5057 10.5748C28.6919 10.4893 28.8473 10.3486 28.951 10.1719C29.0546 9.99519 29.1014 9.79089 29.0852 9.58666C29.0689 9.38243 28.9903 9.18812 28.86 9.03003L28.85 9.08003ZM15 22.64C15.6636 22.5495 16.3364 22.5495 17 22.64L17.11 24.47C16.3693 24.3809 15.6207 24.3809 14.88 24.47L15 22.64ZM15.25 18.46H15.33C15.7746 18.3612 16.2354 18.3612 16.68 18.46H16.76L16.89 20.6C16.3013 20.5451 15.7087 20.5451 15.12 20.6L15.25 18.46ZM15.37 16.46L15.49 14.46H15.84C15.9492 14.4783 16.0608 14.4783 16.17 14.46H16.52L16.64 16.46C16.2162 16.3975 15.7863 16.3875 15.36 16.43L15.37 16.46ZM16.93 28H14.67L14.76 26.5C15.5806 26.3588 16.4194 26.3588 17.24 26.5L17.33 28H16.93ZM19.42 8.77003C19.2316 8.82975 19.0652 8.94393 18.9417 9.09817C18.8182 9.25241 18.7431 9.43978 18.726 9.63664C18.7089 9.83349 18.7505 10.031 18.8455 10.2043C18.9405 10.3775 19.0848 10.5187 19.26 10.61C20.3032 11.1938 21.2762 11.895 22.16 12.7C20.83 12.347 19.4552 12.192 18.08 12.24C17.9015 12.0873 17.6749 12.0024 17.44 12H14.57C14.3351 12.0024 14.1085 12.0873 13.93 12.24C12.5553 12.1888 11.1805 12.3404 9.85 12.69C10.7339 11.8852 11.7069 11.1839 12.75 10.6C12.9252 10.5087 13.0695 10.3675 13.1645 10.1943C13.2595 10.021 13.3011 9.82349 13.284 9.62664C13.2669 9.42978 13.1918 9.24241 13.0683 9.08817C12.9448 8.93393 12.7784 8.81975 12.59 8.76003C11.3373 8.41127 10.04 8.24952 8.74 8.28003H7.8C9.48636 7.7824 11.2611 7.65953 13 7.92003C13.2109 7.98029 13.4357 7.96955 13.6399 7.88946C13.8441 7.80937 14.0163 7.66438 14.1299 7.47681C14.2436 7.28925 14.2925 7.06952 14.269 6.85145C14.2455 6.63339 14.151 6.42909 14 6.27003C13.0931 5.27877 11.9758 4.50314 10.73 4.00003C12.3932 3.982 14.0407 4.3231 15.56 5.00003C15.697 5.06714 15.8475 5.10203 16 5.10203C16.1525 5.10203 16.303 5.06714 16.44 5.00003C17.9615 4.32988 19.6075 3.98909 21.27 4.00003C20.0242 4.50314 18.9069 5.27877 18 6.27003C17.8618 6.42458 17.775 6.61828 17.7517 6.82431C17.7284 7.03034 17.7698 7.23852 17.87 7.42003C17.971 7.60244 18.1266 7.74871 18.3148 7.83836C18.5031 7.92801 18.7147 7.95657 18.92 7.92003C20.6741 7.66332 22.4632 7.79648 24.16 8.31003C22.5655 8.20737 20.965 8.3627 19.42 8.77003Z" fill="white"/>
</svg>
