<svg width="256" height="256" viewBox="0 0 256 256" fill="none" xmlns="http://www.w3.org/2000/svg">
<g clip-path="url(#clip0_1084_69)">
<path d="M104.002 48H56.002C51.5837 48 48.002 51.5817 48.002 56V104C48.002 108.418 51.5837 112 56.002 112H104.002C108.42 112 112.002 108.418 112.002 104V56C112.002 51.5817 108.42 48 104.002 48Z" stroke="white" stroke-width="16" stroke-linecap="round" stroke-linejoin="round"/>
<path d="M104.002 144H56.002C51.5837 144 48.002 147.582 48.002 152V200C48.002 204.418 51.5837 208 56.002 208H104.002C108.42 208 112.002 204.418 112.002 200V152C112.002 147.582 108.42 144 104.002 144Z" stroke="white" stroke-width="16" stroke-linecap="round" stroke-linejoin="round"/>
<path d="M200.002 48H152.002C147.584 48 144.002 51.5817 144.002 56V104C144.002 108.418 147.584 112 152.002 112H200.002C204.42 112 208.002 108.418 208.002 104V56C208.002 51.5817 204.42 48 200.002 48Z" stroke="white" stroke-width="16" stroke-linecap="round" stroke-linejoin="round"/>
<path d="M144.002 144V176" stroke="white" stroke-width="16" stroke-linecap="round" stroke-linejoin="round"/>
<path d="M144.002 208H176.002V144" stroke="white" stroke-width="16" stroke-linecap="round" stroke-linejoin="round"/>
<path d="M176.002 160H208.002" stroke="white" stroke-width="16" stroke-linecap="round" stroke-linejoin="round"/>
<path d="M208.002 192V208" stroke="white" stroke-width="16" stroke-linecap="round" stroke-linejoin="round"/>
</g>
<defs>
<clipPath id="clip0_1084_69">
<rect width="256" height="256" fill="white"/>
</clipPath>
</defs>
</svg>
