<svg width="64" height="64" viewBox="0 0 64 64" fill="none" xmlns="http://www.w3.org/2000/svg">
<g clip-path="url(#clip0_1083_58)">
<path d="M30 46.9099V59.9999H19.5V63.9999H44.5V59.9999H34V46.9099C40.0373 46.3942 45.6421 43.5664 49.6443 39.017C53.6465 34.4675 55.7367 28.548 55.4787 22.4942C55.2206 16.4404 52.6341 10.7203 48.2593 6.52792C43.8844 2.33559 38.0593 -0.00488281 32 -0.00488281C25.9407 -0.00488281 20.1156 2.33559 15.7407 6.52792C11.3658 10.7203 8.77939 16.4404 8.52131 22.4942C8.26324 28.548 10.3535 34.4675 14.3557 39.017C18.3579 43.5664 23.9627 46.3942 30 46.9099ZM32 3.99986C37.0032 3.9927 41.8177 5.90891 45.4477 9.35209C49.0776 12.7953 51.2453 17.502 51.5022 22.4986C51.7591 27.4952 50.0856 32.3994 46.8279 36.1967C43.5702 39.994 38.9775 42.3939 34 42.8999V34.9999L41.27 29.0499L38.73 25.9999L34 29.8299V15.8799H30V23.0899L25 18.9999L22.46 22.0999L30 28.2599V42.8999C25.0224 42.3939 20.4298 39.994 17.1721 36.1967C13.9144 32.3994 12.2409 27.4952 12.4978 22.4986C12.7547 17.502 14.9223 12.7953 18.5523 9.35209C22.1822 5.90891 26.9968 3.9927 32 3.99986Z" fill="white"/>
</g>
<defs>
<clipPath id="clip0_1083_58">
<rect width="64" height="64" fill="white"/>
</clipPath>
</defs>
</svg>
