<svg width="32" height="32" viewBox="0 0 32 32" fill="none" xmlns="http://www.w3.org/2000/svg">
<path d="M4.53749 14.0439C4.66249 13.8939 4.69374 13.6877 4.61249 13.5064C4.53124 13.3314 4.35624 13.2127 4.15624 13.2127H2.24374L4.53749 10.5377C4.66249 10.3877 4.69374 10.1814 4.61249 10.0002C4.53124 9.8252 4.35624 9.70645 4.15624 9.70645H2.23749L6.66249 4.48145L9.95624 8.3752L8.84999 9.8252C8.78749 9.8752 8.73124 9.9377 8.69999 10.0189V10.0252L7.26874 11.9064C7.15624 12.0564 7.13124 12.2627 7.21874 12.4314C7.29999 12.6002 7.47499 12.7064 7.66874 12.7064H10.4687L10.0875 13.2064H9.16874C8.97499 13.2064 8.79374 13.3189 8.71249 13.5002C8.63124 13.6752 8.66249 13.8877 8.78749 14.0377L9.14374 14.4502L7.41874 16.7127H7.16874H5.16874H2.24374L4.53749 14.0439ZM4.28124 23.7189C5.14374 22.8689 5.65624 21.6877 5.65624 20.4252V17.7189H6.65624V20.4252C6.65624 21.6877 7.16874 22.8627 8.03124 23.7189H4.28124ZM7.65624 20.4252V17.7189H10.4562L7.76249 21.2564C7.69999 20.9877 7.65624 20.7127 7.65624 20.4252ZM18.5937 30.2189H12.7125C14.2437 28.8502 15.15 26.8752 15.15 24.7689V22.7189H16.15V24.7689C16.1562 26.8752 17.0625 28.8502 18.5937 30.2189ZM16.6562 21.7189H14.6562H8.66874L11.8687 17.5189C11.8875 17.4939 11.9 17.4627 11.9187 17.4314C11.925 17.4189 11.9312 17.4127 11.9375 17.4002C11.9562 17.3439 11.9687 17.2877 11.9687 17.2314C11.9687 17.2252 11.975 17.2189 11.975 17.2127C11.975 17.2002 11.9687 17.1939 11.9687 17.1814C11.9687 17.1377 11.9562 17.0939 11.9437 17.0502C11.9375 17.0377 11.9375 17.0189 11.9312 17.0064C11.9312 17.0002 11.9312 16.9939 11.925 16.9939C11.9 16.9502 11.8687 16.9064 11.8375 16.8689C11.8312 16.8627 11.8187 16.8502 11.8062 16.8439C11.775 16.8127 11.7375 16.7877 11.6937 16.7689C11.6812 16.7627 11.6625 16.7564 11.65 16.7502C11.5937 16.7314 11.5375 16.7127 11.4812 16.7127H8.68124L11.8812 12.5127C11.9937 12.3627 12.0187 12.1564 11.9312 11.9877C11.85 11.8189 11.675 11.7127 11.4812 11.7127H8.68124L15.6562 2.54395L22.6437 11.7189H19.8437C19.6562 11.7189 19.4812 11.8252 19.3937 11.9939C19.3062 12.1627 19.3312 12.3689 19.4437 12.5189L22.6437 16.7189H19.8437C19.7812 16.7189 19.725 16.7314 19.675 16.7564C19.6562 16.7627 19.6437 16.7689 19.6312 16.7752C19.5875 16.7939 19.5562 16.8189 19.5187 16.8502C19.5062 16.8564 19.5 16.8627 19.4875 16.8752C19.45 16.9127 19.425 16.9502 19.4 17.0002C19.4 17.0064 19.4 17.0127 19.3937 17.0127C19.3875 17.0252 19.3812 17.0439 19.3812 17.0564C19.3687 17.1002 19.3562 17.1439 19.3562 17.1877C19.3562 17.2002 19.35 17.2064 19.35 17.2189C19.35 17.2252 19.3562 17.2314 19.3562 17.2377C19.3562 17.2939 19.3687 17.3502 19.3875 17.4064C19.3937 17.4189 19.4 17.4252 19.4062 17.4377C19.4187 17.4689 19.4312 17.4939 19.4562 17.5252L22.6562 21.7252H16.6562V21.7189ZM20.8562 17.7189H23.6562V20.4252C23.6562 20.7064 23.6125 20.9877 23.55 21.2564L20.8562 17.7189ZM27.0312 23.7189H23.2812C24.1437 22.8689 24.6562 21.6877 24.6562 20.4252V17.7189H25.6562V20.4252C25.6562 21.6877 26.1687 22.8689 27.0312 23.7189ZM27.1562 13.2189C26.9625 13.2189 26.7812 13.3314 26.7 13.5127C26.6187 13.6877 26.65 13.9002 26.775 14.0502L29.0687 16.7252H26.1562H24.1562H23.9062L22.1812 14.4627L22.5375 14.0502C22.6625 13.9002 22.6937 13.6939 22.6125 13.5127C22.5312 13.3377 22.3562 13.2189 22.1562 13.2189H21.2375L20.8562 12.7189H23.6562C23.8437 12.7189 24.0187 12.6127 24.1062 12.4439C24.1937 12.2752 24.1687 12.0689 24.0562 11.9189L22.625 10.0377V10.0314C22.5937 9.9502 22.5375 9.8877 22.475 9.8377L21.3687 8.3877L24.6625 4.49395L29.0875 9.71895H27.1625C26.9687 9.71895 26.7875 9.83145 26.7062 10.0127C26.625 10.1877 26.6562 10.4002 26.7812 10.5502L29.075 13.2252H27.1562V13.2189Z" fill="white"/>
</svg>
