<svg width="79" height="79" viewBox="0 0 79 79" fill="none" xmlns="http://www.w3.org/2000/svg">
<g filter="url(#filter0_d_1079_58)">
<circle cx="37.5" cy="37.5" r="27.5" fill="white"/>
</g>
<path d="M25.5375 36.0439C25.6625 35.8939 25.6938 35.6877 25.6125 35.5064C25.5313 35.3314 25.3563 35.2127 25.1563 35.2127H23.2438L25.5375 32.5377C25.6625 32.3877 25.6938 32.1814 25.6125 32.0002C25.5313 31.8252 25.3563 31.7064 25.1563 31.7064H23.2375L27.6625 26.4814L30.9563 30.3752L29.85 31.8252C29.7875 31.8752 29.7313 31.9377 29.7 32.0189V32.0252L28.2688 33.9064C28.1563 34.0564 28.1313 34.2627 28.2188 34.4314C28.3 34.6002 28.475 34.7064 28.6688 34.7064H31.4688L31.0875 35.2064H30.1688C29.975 35.2064 29.7938 35.3189 29.7125 35.5002C29.6313 35.6752 29.6625 35.8877 29.7875 36.0377L30.1438 36.4502L28.4188 38.7127H28.1688H26.1688H23.2438L25.5375 36.0439ZM25.2813 45.7189C26.1438 44.8689 26.6563 43.6877 26.6563 42.4252V39.7189H27.6563V42.4252C27.6563 43.6877 28.1688 44.8627 29.0313 45.7189H25.2813ZM28.6563 42.4252V39.7189H31.4563L28.7625 43.2564C28.7 42.9877 28.6563 42.7127 28.6563 42.4252ZM39.5938 52.2189H33.7125C35.2438 50.8502 36.15 48.8752 36.15 46.7689V44.7189H37.15V46.7689C37.1563 48.8752 38.0625 50.8502 39.5938 52.2189ZM37.6563 43.7189H35.6563H29.6688L32.8688 39.5189C32.8875 39.4939 32.9 39.4627 32.9188 39.4314C32.925 39.4189 32.9313 39.4127 32.9375 39.4002C32.9563 39.3439 32.9688 39.2877 32.9688 39.2314C32.9688 39.2252 32.975 39.2189 32.975 39.2127C32.975 39.2002 32.9688 39.1939 32.9688 39.1814C32.9688 39.1377 32.9563 39.0939 32.9438 39.0502C32.9375 39.0377 32.9375 39.0189 32.9313 39.0064C32.9313 39.0002 32.9313 38.9939 32.925 38.9939C32.9 38.9502 32.8688 38.9064 32.8375 38.8689C32.8313 38.8627 32.8188 38.8502 32.8063 38.8439C32.775 38.8127 32.7375 38.7877 32.6938 38.7689C32.6813 38.7627 32.6625 38.7564 32.65 38.7502C32.5938 38.7314 32.5375 38.7127 32.4813 38.7127H29.6813L32.8813 34.5127C32.9938 34.3627 33.0188 34.1564 32.9313 33.9877C32.85 33.8189 32.675 33.7127 32.4813 33.7127H29.6813L36.6563 24.5439L43.6438 33.7189H40.8438C40.6563 33.7189 40.4813 33.8252 40.3938 33.9939C40.3063 34.1627 40.3313 34.3689 40.4438 34.5189L43.6438 38.7189H40.8438C40.7813 38.7189 40.725 38.7314 40.675 38.7564C40.6563 38.7627 40.6438 38.7689 40.6313 38.7752C40.5875 38.7939 40.5563 38.8189 40.5188 38.8502C40.5063 38.8564 40.5 38.8627 40.4875 38.8752C40.45 38.9127 40.425 38.9502 40.4 39.0002C40.4 39.0064 40.4 39.0127 40.3938 39.0127C40.3875 39.0252 40.3813 39.0439 40.3813 39.0564C40.3688 39.1002 40.3563 39.1439 40.3563 39.1877C40.3563 39.2002 40.35 39.2064 40.35 39.2189C40.35 39.2252 40.3563 39.2314 40.3563 39.2377C40.3563 39.2939 40.3688 39.3502 40.3875 39.4064C40.3938 39.4189 40.4 39.4252 40.4063 39.4377C40.4188 39.4689 40.4313 39.4939 40.4563 39.5252L43.6563 43.7252H37.6563V43.7189ZM41.8563 39.7189H44.6563V42.4252C44.6563 42.7064 44.6125 42.9877 44.55 43.2564L41.8563 39.7189ZM48.0313 45.7189H44.2813C45.1438 44.8689 45.6563 43.6877 45.6563 42.4252V39.7189H46.6563V42.4252C46.6563 43.6877 47.1688 44.8689 48.0313 45.7189ZM48.1563 35.2189C47.9625 35.2189 47.7813 35.3314 47.7 35.5127C47.6188 35.6877 47.65 35.9002 47.775 36.0502L50.0688 38.7252H47.1563H45.1563H44.9063L43.1813 36.4627L43.5375 36.0502C43.6625 35.9002 43.6938 35.6939 43.6125 35.5127C43.5313 35.3377 43.3563 35.2189 43.1563 35.2189H42.2375L41.8563 34.7189H44.6563C44.8438 34.7189 45.0188 34.6127 45.1063 34.4439C45.1938 34.2752 45.1688 34.0689 45.0563 33.9189L43.625 32.0377V32.0314C43.5938 31.9502 43.5375 31.8877 43.475 31.8377L42.3688 30.3877L45.6625 26.4939L50.0875 31.7189H48.1625C47.9688 31.7189 47.7875 31.8314 47.7063 32.0127C47.625 32.1877 47.6563 32.4002 47.7813 32.5502L50.075 35.2252H48.1563V35.2189Z" fill="#89B8A3"/>
<defs>
<filter id="filter0_d_1079_58" x="0" y="0" width="79" height="79" filterUnits="userSpaceOnUse" color-interpolation-filters="sRGB">
<feFlood flood-opacity="0" result="BackgroundImageFix"/>
<feColorMatrix in="SourceAlpha" type="matrix" values="0 0 0 0 0 0 0 0 0 0 0 0 0 0 0 0 0 0 127 0" result="hardAlpha"/>
<feOffset dx="2" dy="2"/>
<feGaussianBlur stdDeviation="6"/>
<feComposite in2="hardAlpha" operator="out"/>
<feColorMatrix type="matrix" values="0 0 0 0 0 0 0 0 0 0 0 0 0 0 0 0 0 0 0.16 0"/>
<feBlend mode="normal" in2="BackgroundImageFix" result="effect1_dropShadow_1079_58"/>
<feBlend mode="normal" in="SourceGraphic" in2="effect1_dropShadow_1079_58" result="shape"/>
</filter>
</defs>
</svg>
