<svg width="24" height="24" viewBox="0 0 24 24" fill="none" xmlns="http://www.w3.org/2000/svg">
<g clip-path="url(#clip0_1073_64)">
<path d="M17.37 12.3898L12 16.7098L6.64003 12.2298C6.53891 12.1457 6.42223 12.0824 6.29665 12.0435C6.17106 12.0045 6.03904 11.9907 5.90811 12.0028C5.77717 12.0148 5.6499 12.0526 5.53356 12.1138C5.41721 12.1751 5.31407 12.2587 5.23003 12.3598C5.14598 12.4609 5.08268 12.5776 5.04372 12.7032C5.00477 12.8288 4.99094 12.9608 5.00301 13.0917C5.01508 13.2226 5.05282 13.3499 5.11408 13.4663C5.17534 13.5826 5.25891 13.6857 5.36003 13.7698L11.36 18.7698C11.539 18.9169 11.7634 18.9973 11.995 18.9973C12.2267 18.9973 12.4511 18.9169 12.63 18.7698L18.63 13.9398C18.7328 13.8573 18.8182 13.7553 18.8813 13.6396C18.9445 13.524 18.9842 13.397 18.9981 13.266C19.0121 13.1349 19 13.0024 18.9626 12.8761C18.9251 12.7498 18.8631 12.6321 18.78 12.5298C18.6968 12.4278 18.5942 12.3432 18.4782 12.281C18.3622 12.2187 18.2351 12.18 18.1041 12.167C17.9731 12.154 17.8408 12.1669 17.7148 12.2052C17.5889 12.2434 17.4717 12.3062 17.37 12.3898Z" fill="white"/>
<path d="M11.36 11.7698C11.539 11.9169 11.7634 11.9973 11.995 11.9973C12.2267 11.9973 12.4511 11.9169 12.63 11.7698L18.63 6.93979C18.7328 6.85726 18.8182 6.75525 18.8813 6.63962C18.9445 6.52398 18.9842 6.397 18.9981 6.26597C19.0121 6.13494 19 6.00245 18.9626 5.87611C18.9251 5.74977 18.8631 5.63208 18.78 5.52979C18.6975 5.42706 18.5955 5.34166 18.4799 5.27848C18.3642 5.21531 18.2372 5.17561 18.1062 5.16167C17.9752 5.14773 17.8427 5.15983 17.7164 5.19726C17.59 5.23469 17.4723 5.29672 17.37 5.37979L12 9.70979L6.64003 5.22979C6.43581 5.06005 6.17253 4.97839 5.90811 5.00277C5.64368 5.02715 5.39977 5.15557 5.23003 5.35979C5.06029 5.564 4.97863 5.82728 5.00301 6.09171C5.02739 6.35614 5.15581 6.60005 5.36003 6.76979L11.36 11.7698Z" fill="white"/>
</g>
<defs>
<clipPath id="clip0_1073_64">
<rect width="24" height="24" fill="white"/>
</clipPath>
</defs>
</svg>
