<svg width="106" height="143" viewBox="0 0 106 143" fill="none" xmlns="http://www.w3.org/2000/svg">
<g clip-path="url(#clip0_1079_63)">
<path d="M106 33.9821H105.214V12.4577C105.214 10.8218 104.892 9.20181 104.265 7.69037C103.639 6.17893 102.721 4.8056 101.564 3.64879C100.406 2.49198 99.0322 1.57435 97.5201 0.948292C96.008 0.322231 94.3873 1.2902e-06 92.7506 0H47.1276C45.4909 -3.87045e-06 43.8702 0.322222 42.3581 0.948278C40.846 1.57433 39.472 2.49196 38.3147 3.64877C37.1574 4.80557 36.2393 6.1789 35.613 7.69034C34.9866 9.20178 34.6642 10.8217 34.6642 12.4577V130.542C34.6642 133.846 35.9773 137.015 38.3147 139.351C40.652 141.687 43.8221 143 47.1276 143H92.7505C96.056 143 99.2261 141.687 101.563 139.351C103.901 137.015 105.214 133.846 105.214 130.542V49.3036H106L106 33.9821Z" fill="#616161"/>
<path d="M93.2534 3.24122H87.2981C87.572 3.91235 87.6765 4.64051 87.6025 5.36154C87.5286 6.08257 87.2783 6.77435 86.8738 7.37594C86.4693 7.97752 85.9231 8.47045 85.2831 8.81129C84.6431 9.15214 83.9291 9.33045 83.204 9.3305H57.0672C56.342 9.33045 55.628 9.15214 54.9881 8.8113C54.3481 8.47045 53.8018 7.97752 53.3973 7.37594C52.9929 6.77435 52.7426 6.08257 52.6686 5.36154C52.5946 4.64051 52.6992 3.91235 52.973 3.24121H47.4108C44.9423 3.24121 42.5749 4.22137 40.8294 5.96608C39.0839 7.71078 38.1033 10.0771 38.1033 12.5445V130.456C38.1033 131.677 38.344 132.887 38.8118 134.016C39.2795 135.145 39.9651 136.17 40.8294 137.034C41.6937 137.898 42.7197 138.583 43.8489 139.051C44.9782 139.518 46.1885 139.759 47.4108 139.759H93.2534C94.4757 139.759 95.686 139.518 96.8153 139.051C97.9445 138.583 98.9706 137.898 99.8348 137.034C100.699 136.17 101.385 135.145 101.852 134.016C102.32 132.887 102.561 131.677 102.561 130.456V12.5445C102.561 11.3228 102.32 10.113 101.852 8.98428C101.385 7.85556 100.699 6.82997 99.8348 5.96608C98.9706 5.10219 97.9445 4.41692 96.8153 3.94938C95.686 3.48185 94.4757 3.24122 93.2534 3.24122Z" fill="white"/>
<path d="M96.7292 26.4253H43.9351V116.575H96.7292V26.4253Z" fill="#E6E6E6"/>
<path d="M26.2046 45.5799C28.6246 47.5958 23.7845 53.8673 23.7845 53.8673C23.7845 53.8673 35.2798 54.3153 34.3722 54.3153C33.4647 54.3153 32.7085 44.796 32.7085 44.796C32.7085 44.796 23.7845 43.5641 26.2046 45.5799Z" fill="#FFB8B8"/>
<path d="M21.5309 71.0903L31.9495 74.8235L37.6502 77.1814C37.6502 77.1814 41.3852 87.3988 43.1544 91.918C44.9236 96.4373 39.2228 103.707 39.2228 103.707C39.2228 103.707 39.8126 105.869 39.2228 106.851C38.918 107.353 38.655 107.878 38.4365 108.423C38.2399 108.816 36.0776 108.62 33.7187 108.423C31.3597 108.227 33.5221 104.493 33.5221 104.493C33.5221 104.493 35.4879 96.6338 35.6844 96.4373C35.868 96.2538 36.3945 94.8707 35.8228 94.3685C35.2907 93.9285 34.8536 93.385 34.5378 92.7711C34.2733 92.2422 33.9309 91.7559 33.5221 91.3286C33.5221 91.3286 27.2917 82.1445 24.2147 80.0559C21.1377 77.9673 13.9927 80.4489 13.9927 80.4489C13.9927 80.4489 17.4028 85.6304 17.4028 86.8093C17.4028 87.9883 17.5993 88.5777 18.1891 88.9707C18.7788 89.3637 18.5822 90.1496 18.5822 90.9356C18.5822 91.7215 19.1719 93.2935 20.1548 94.0794C21.1377 94.8654 21.3343 95.6513 21.1377 97.2232C20.9411 98.7951 15.6336 98.0092 15.6336 98.0092L13.0781 93.097C13.0781 93.097 9.14651 86.8093 6.591 80.1287C5.31325 76.7884 6.64015 74.5288 8.28648 73.1043C9.8728 71.7594 11.9142 71.0728 13.9912 71.1857L23.2318 71.607L16.6164 69.7148L21.5309 71.0903Z" fill="#2F2E41"/>
<path d="M55.9319 53.6029L67.1368 48.4942C67.1368 48.4942 71.0683 41.8136 68.7094 41.0277C66.3505 40.2417 64.3847 46.9223 64.3847 46.9223L56.325 48.4942L55.9319 53.6029Z" fill="#FFB8B8"/>
<path d="M11.5054 57.1397C11.5054 57.1397 5.80471 62.2484 5.60813 62.8379C5.41155 63.4273 1.87316 64.9992 0.300545 62.2484C-1.27207 59.4976 3.83893 59.694 3.83893 59.694L7.37732 55.1748L11.5054 57.1397Z" fill="#FFB8B8"/>
<path d="M5.73645 54.1195L11.8303 58.6387L21.8558 55.1019C19.9924 60.9334 21.4523 67.1092 15.3317 70.6864L38.5279 78.5459C36.4749 70.2838 39.7171 63.4441 42.4964 55.1019C46.8987 52.8343 52.4204 53.3706 58.4191 55.1019V47.0459L34.0436 48.4213L30.2716 50.448L25.7873 49.2073C19.296 48.1554 11.1859 50.4542 5.73645 54.1195Z" fill="#ADC1B5"/>
<path d="M20.7446 97.0267C21.3343 97.4197 22.3172 101.153 22.5138 102.528C22.7103 103.904 20.9412 104.493 19.9583 104.69C18.9754 104.886 19.172 105.476 18.5822 106.065C17.9925 106.655 15.8301 106.851 12.8815 106.262C9.93283 105.672 14.2575 101.939 14.6507 101.742C15.0438 101.546 16.2233 97.0267 16.2233 97.0267C16.2233 97.0267 20.1548 96.6337 20.7446 97.0267Z" fill="#2F2E41"/>
<path d="M37.0605 107.833L38.6331 111.96L40.1201 114.189C40.5249 114.783 40.7981 115.458 40.9212 116.166C41.0443 116.875 41.0146 117.601 40.834 118.297C40.5835 119.219 40.0644 120.089 39.0263 120.409C36.4708 121.195 34.8982 116.282 34.8982 116.282C34.8982 116.282 33.5221 113.531 32.5392 110.977C31.5563 108.423 33.3255 107.047 33.3255 107.047L37.0605 107.833Z" fill="#2F2E41"/>
<path d="M29.5211 48.0724C32.1262 48.0724 34.2381 45.9615 34.2381 43.3575C34.2381 40.7535 32.1262 38.6426 29.5211 38.6426C26.9159 38.6426 24.804 40.7535 24.804 43.3575C24.804 45.9615 26.9159 48.0724 29.5211 48.0724Z" fill="#FFB8B8"/>
<path d="M34.8683 42.1923C35.0765 41.5975 35.157 40.9656 35.1046 40.3377C35.0522 39.7098 34.868 39.1 34.564 38.548C33.9581 37.4739 32.7912 36.4671 30.5479 36.4103C25.6534 36.2864 23.5325 39.9751 23.8083 41.0567C24.084 42.1384 25.0706 44.7119 25.0706 44.7119C25.0706 44.7119 24.4588 42.2338 25.6824 41.986C26.906 41.7382 31.6475 40.747 33.0241 41.8621C33.4167 42.1626 33.7226 42.5617 33.9106 43.0187C34.0987 43.4758 34.1622 43.9745 34.0948 44.4641L34.8683 42.1923Z" fill="#2F2E41"/>
<path d="M70.4103 133.17C73.2331 133.17 75.5213 130.882 75.5213 128.061C75.5213 125.239 73.2331 122.952 70.4103 122.952C67.5876 122.952 65.2993 125.239 65.2993 128.061C65.2993 130.882 67.5876 133.17 70.4103 133.17Z" fill="#E6E6E6"/>
</g>
<defs>
<clipPath id="clip0_1079_63">
<rect width="106" height="143" fill="white"/>
</clipPath>
</defs>
</svg>
